name rise30.3154peak39.0474fall46.5389.mot
datacolumns 19
datarows 24
range 18.59993200000000 18.63832800000000
endheader
time	ground_force1_vx	ground_force1_vy	ground_force1_vz	ground_force1_px	ground_force1_py	ground_force1_pz	ground_force2_vx	ground_force2_vy	ground_force2_vz	ground_force2_px	ground_force2_py	ground_force2_pz	ground_torque1_x	ground_torque1_y	ground_torque1_z	ground_torque2_x	ground_torque2_y	ground_torque2_z	
18.59993200000000	53.87739100000000	722.19145000000003	55.63157800000000	0.37518800000000	0.00000000000000	0.11987300000000	0.00000000000000	0.00000000000000	0.00000000000000	0.00000000000000	0.00000000000000	0.00000000000000	0.00000000000000	27.49851400000000	0.00000000000000	0.00000000000000	0.00000000000000	0.00000000000000	
18.60159900000000	53.29385500000000	725.63381900000002	55.61810700000000	0.37303900000000	0.00000000000000	0.11988700000000	0.00000000000000	0.00000000000000	0.00000000000000	0.00000000000000	0.00000000000000	0.00000000000000	0.00000000000000	27.41585100000000	0.00000000000000	0.00000000000000	0.00000000000000	0.00000000000000	
18.60326700000000	52.72110800000000	729.05356900000004	55.61326900000000	0.37093800000000	0.00000000000000	0.11990000000000	0.00000000000000	0.00000000000000	0.00000000000000	0.00000000000000	0.00000000000000	0.00000000000000	0.00000000000000	27.34048100000000	0.00000000000000	0.00000000000000	0.00000000000000	0.00000000000000	
18.60493000000000	52.15906900000000	732.44365000000005	55.61701200000000	0.36888800000000	0.00000000000000	0.11991300000000	0.00000000000000	0.00000000000000	0.00000000000000	0.00000000000000	0.00000000000000	0.00000000000000	0.00000000000000	27.27255700000000	0.00000000000000	0.00000000000000	0.00000000000000	0.00000000000000	
18.60660200000000	51.60758300000000	735.79694300000006	55.62917100000000	0.36689200000000	0.00000000000000	0.11992400000000	0.00000000000000	0.00000000000000	0.00000000000000	0.00000000000000	0.00000000000000	0.00000000000000	0.00000000000000	27.21215400000000	0.00000000000000	0.00000000000000	0.00000000000000	0.00000000000000	
18.60826500000000	51.06641900000000	739.10629800000004	55.64946800000000	0.36495100000000	0.00000000000000	0.11993500000000	0.00000000000000	0.00000000000000	0.00000000000000	0.00000000000000	0.00000000000000	0.00000000000000	0.00000000000000	27.15926200000000	0.00000000000000	0.00000000000000	0.00000000000000	0.00000000000000	
18.60993600000000	50.53528000000000	742.36456599999997	55.67752100000000	0.36306700000000	0.00000000000000	0.11994500000000	0.00000000000000	0.00000000000000	0.00000000000000	0.00000000000000	0.00000000000000	0.00000000000000	0.00000000000000	27.11379900000000	0.00000000000000	0.00000000000000	0.00000000000000	0.00000000000000	
18.61160200000000	50.01380800000000	745.56463900000006	55.71284800000000	0.36124100000000	0.00000000000000	0.11995300000000	0.00000000000000	0.00000000000000	0.00000000000000	0.00000000000000	0.00000000000000	0.00000000000000	0.00000000000000	27.07560800000000	0.00000000000000	0.00000000000000	0.00000000000000	0.00000000000000	
18.61326700000000	49.50159300000000	748.69948099999999	55.75487500000000	0.35947600000000	0.00000000000000	0.11996000000000	0.00000000000000	0.00000000000000	0.00000000000000	0.00000000000000	0.00000000000000	0.00000000000000	0.00000000000000	27.04446600000000	0.00000000000000	0.00000000000000	0.00000000000000	0.00000000000000	
18.61493200000000	48.99817600000000	751.76216199999999	55.80294000000000	0.35777100000000	0.00000000000000	0.11996500000000	0.00000000000000	0.00000000000000	0.00000000000000	0.00000000000000	0.00000000000000	0.00000000000000	0.00000000000000	27.02008700000000	0.00000000000000	0.00000000000000	0.00000000000000	0.00000000000000	
18.61660400000000	48.50305700000000	754.74589300000002	55.85630400000000	0.35612900000000	0.00000000000000	0.11996900000000	0.00000000000000	0.00000000000000	0.00000000000000	0.00000000000000	0.00000000000000	0.00000000000000	0.00000000000000	27.00212600000000	0.00000000000000	0.00000000000000	0.00000000000000	0.00000000000000	
18.61826300000000	48.01570100000000	757.64404999999999	55.91415600000000	0.35454800000000	0.00000000000000	0.11997100000000	0.00000000000000	0.00000000000000	0.00000000000000	0.00000000000000	0.00000000000000	0.00000000000000	0.00000000000000	26.99018300000000	0.00000000000000	0.00000000000000	0.00000000000000	0.00000000000000	
18.61993500000000	47.53554600000000	760.45021199999996	55.97562300000000	0.35303000000000	0.00000000000000	0.11997100000000	0.00000000000000	0.00000000000000	0.00000000000000	0.00000000000000	0.00000000000000	0.00000000000000	0.00000000000000	26.98381200000000	0.00000000000000	0.00000000000000	0.00000000000000	0.00000000000000	
18.62159900000000	47.06200900000000	763.15818400000001	56.03977600000000	0.35157400000000	0.00000000000000	0.11996900000000	0.00000000000000	0.00000000000000	0.00000000000000	0.00000000000000	0.00000000000000	0.00000000000000	0.00000000000000	26.98252000000000	0.00000000000000	0.00000000000000	0.00000000000000	0.00000000000000	
18.62326700000000	46.59448800000000	765.76202100000000	56.10563800000000	0.35018100000000	0.00000000000000	0.11996500000000	0.00000000000000	0.00000000000000	0.00000000000000	0.00000000000000	0.00000000000000	0.00000000000000	0.00000000000000	26.98577600000000	0.00000000000000	0.00000000000000	0.00000000000000	0.00000000000000	
18.62492800000000	46.13237600000000	768.25606100000005	56.17219500000000	0.34885000000000	0.00000000000000	0.11995900000000	0.00000000000000	0.00000000000000	0.00000000000000	0.00000000000000	0.00000000000000	0.00000000000000	0.00000000000000	26.99301300000000	0.00000000000000	0.00000000000000	0.00000000000000	0.00000000000000	
18.62659700000000	45.67505900000000	770.63493900000003	56.23840200000000	0.34758100000000	0.00000000000000	0.11995100000000	0.00000000000000	0.00000000000000	0.00000000000000	0.00000000000000	0.00000000000000	0.00000000000000	0.00000000000000	27.00363600000000	0.00000000000000	0.00000000000000	0.00000000000000	0.00000000000000	
18.62826300000000	45.22192700000000	772.89361299999996	56.30319400000000	0.34637300000000	0.00000000000000	0.11994000000000	0.00000000000000	0.00000000000000	0.00000000000000	0.00000000000000	0.00000000000000	0.00000000000000	0.00000000000000	27.01702400000000	0.00000000000000	0.00000000000000	0.00000000000000	0.00000000000000	
18.62993600000000	44.77237700000000	775.02738099999999	56.36548900000000	0.34522400000000	0.00000000000000	0.11992700000000	0.00000000000000	0.00000000000000	0.00000000000000	0.00000000000000	0.00000000000000	0.00000000000000	0.00000000000000	27.03253600000000	0.00000000000000	0.00000000000000	0.00000000000000	0.00000000000000	
18.63159900000000	44.32581800000000	777.03190099999995	56.42420400000000	0.34413500000000	0.00000000000000	0.11991200000000	0.00000000000000	0.00000000000000	0.00000000000000	0.00000000000000	0.00000000000000	0.00000000000000	0.00000000000000	27.04951500000000	0.00000000000000	0.00000000000000	0.00000000000000	0.00000000000000	
18.63326400000000	43.88167800000000	778.90320099999997	56.47825500000000	0.34310400000000	0.00000000000000	0.11989400000000	0.00000000000000	0.00000000000000	0.00000000000000	0.00000000000000	0.00000000000000	0.00000000000000	0.00000000000000	27.06729300000000	0.00000000000000	0.00000000000000	0.00000000000000	0.00000000000000	
18.63493000000000	43.43940500000000	780.63769700000000	56.52657300000000	0.34213000000000	0.00000000000000	0.11987300000000	0.00000000000000	0.00000000000000	0.00000000000000	0.00000000000000	0.00000000000000	0.00000000000000	0.00000000000000	27.08519500000000	0.00000000000000	0.00000000000000	0.00000000000000	0.00000000000000	
18.63659500000000	42.99847400000000	782.23220200000003	56.56810300000000	0.34121000000000	0.00000000000000	0.11985000000000	0.00000000000000	0.00000000000000	0.00000000000000	0.00000000000000	0.00000000000000	0.00000000000000	0.00000000000000	27.10254400000000	0.00000000000000	0.00000000000000	0.00000000000000	0.00000000000000	
18.63832800000000	42.55838900000000	783.68393500000002	56.60181900000000	0.34034500000000	0.00000000000000	0.11982500000000	0.00000000000000	0.00000000000000	0.00000000000000	0.00000000000000	0.00000000000000	0.00000000000000	0.00000000000000	27.11866300000000	0.00000000000000	0.00000000000000	0.00000000000000	0.00000000000000	
